<svg xmlns="http://www.w3.org/2000/svg" viewBox="0 0 16 16" fill="currentColor">
  <!--
    paste-as-text icon — clipboard with text lines
    16×16 px, currentColor fill
  -->
  <!-- Clipboard body -->
  <path d="M13 3h-2.18A2 2 0 0 0 9 2H7a2 2 0 0 0-1.82 1H3a1 1 0 0 0-1 1v10a1 1 0 0 0 1 1h10a1 1 0 0 0 1-1V4a1 1 0 0 0-1-1zm-6 0a1 1 0 0 1 2 0v1H7V3zm6 11H3V4h1.5v1a.5.5 0 0 0 .5.5h5A.5.5 0 0 0 10.5 5V4H13v10z"/>
  <!-- Text line 1 (full width) -->
  <rect x="4.5" y="8" width="7" height="1" rx="0.5"/>
  <!-- Text line 2 (full width) -->
  <rect x="4.5" y="10" width="7" height="1" rx="0.5"/>
  <!-- Text line 3 (short — simulates end of text) -->
  <rect x="4.5" y="12" width="4" height="1" rx="0.5"/>
</svg>
